<?xml version="1.0" encoding="iso-8859-1"?>
<!-- Generator: Adobe Illustrator 19.0.0, SVG Export Plug-In . SVG Version: 6.00 Build 0)  -->
<svg version="1.1" id="Capa_1" xmlns="http://www.w3.org/2000/svg" xmlns:xlink="http://www.w3.org/1999/xlink" x="0px" y="0px"
	 viewBox="0 0 512.001 512.001" style="enable-background:new 0 0 512.001 512.001;" xml:space="preserve">
<path style="fill:#FC1A40;" d="M436.976,181.004H76.996c-8.401,0-14.999,6.599-14.999,14.999v180.99
	c0,5.7,2.999,10.799,8.101,13.199l162.59,83.695c2.1,1.199,4.501,1.8,6.899,1.8c0.901,0,1.8,0,2.701-0.3l13.199-2.399l184.19-35.099
	c7.2-1.199,12.298-7.5,12.298-14.699V196.004C451.975,187.603,445.377,181.004,436.976,181.004z"/>
<path style="fill:#C60034;" d="M451.975,196.004V423.19c0,7.2-5.099,13.499-12.298,14.699l-184.19,35.099V181.004h181.489
	C445.377,181.004,451.975,187.603,451.975,196.004z"/>
<path style="fill:#17CEB4;" d="M381.48,27.067c-11.7-17.698-30.899-27.898-53.398-26.998c-21.3,1.199-40.197,12.899-50.397,31.798
	l-22.199,40.798l-22.199-40.798c-10.2-18.899-29.099-30.599-50.697-31.798c-21.599-0.901-41.398,9.299-53.397,26.998
	c-12.298,18.899-13.499,42.599-2.999,62.698c10.498,19.798,31.197,32.098,53.696,32.098h151.191c22.499,0,42.9-12.3,53.698-32.098
	C395.278,69.666,394.078,45.966,381.48,27.067z"/>
<path style="fill:#11AD94;" d="M255.486,121.863V72.665l22.199-40.798c10.2-18.899,29.097-30.599,50.397-31.798
	c22.499-0.901,41.698,9.299,53.398,26.998c12.598,18.899,13.798,42.599,3.3,62.698c-10.799,19.798-31.199,32.098-53.698,32.098
	C331.082,121.863,255.486,121.863,255.486,121.863z"/>
<path style="fill:#FF3E75;" d="M436.976,91.009H76.996c-24.9,0-44.998,20.098-44.998,44.998v59.997
	c0,8.399,6.599,14.999,14.999,14.999h419.977c8.401,0,14.999-6.601,14.999-14.999v-59.997
	C481.974,111.108,461.876,91.009,436.976,91.009z"/>
<path style="fill:#FC1A40;" d="M481.974,136.007v59.997c0,8.399-6.599,14.999-14.999,14.999H255.486V91.009h181.49
	C461.876,91.009,481.974,111.108,481.974,136.007z"/>
<path style="fill:#1CEED2;" d="M211.988,91.009v371.78c0,8.101,6,14.699,14.098,14.999l29.399,2.1l30.597,2.1h0.901
	c3.9,0,7.5-1.5,10.2-3.9c2.999-3.001,4.799-6.899,4.799-11.099V91.009C301.983,91.009,211.988,91.009,211.988,91.009z"/>
<path style="fill:#17CEB4;" d="M301.983,91.009v375.979c0,4.2-1.8,8.099-4.799,11.099c-2.701,2.401-6.301,3.9-10.2,3.9h-0.901
	l-30.597-2.1V91.009C255.486,91.009,301.983,91.009,301.983,91.009z"/>
<path style="fill:#FEDBAB;" d="M502.972,373.993l-71.997,95.995c-19.798,26.399-50.997,41.999-83.995,41.999H183.189
	c-45.296,0-90.293-8.401-132.292-27.299l10.498-135.592c35.099-59.398,112.194-69.296,159.892-27c5.7,4.799,9.599,9.9,17.099,9.9
	h93.595c16.499,0,29.998,13.499,29.998,29.998c0,16.499-13.499,29.998-29.998,29.998H226.988c-8.401,0-14.999,6.599-14.999,14.999
	c0,8.399,6.599,14.999,14.999,14.999h129.894c12.598,0,24.599-5.101,32.997-14.4l74.097-79.495
	c13.498-14.398,36.297-10.2,44.698,5.7C515.272,346.094,511.371,362.893,502.972,373.993z"/>
<g>
	<path style="fill:#FEC478;" d="M331.982,391.993h-76.496v-59.997h76.496c16.499,0,29.998,13.499,29.998,29.998
		C361.98,378.494,348.481,391.993,331.982,391.993z"/>
	<path style="fill:#FEC478;" d="M502.972,373.993l-71.997,95.995c-19.798,26.399-50.997,41.999-83.995,41.999h-91.495v-89.995
		h101.394c12.598,0,24.599-5.101,32.997-14.4l74.097-79.495c13.498-14.398,36.297-10.2,44.698,5.7
		C515.272,346.094,511.371,362.893,502.972,373.993z"/>
</g>
<path style="fill:#3B2C68;" d="M76.996,511.986H14.999C6.709,511.986,0,505.278,0,496.987v-179.99
	c0-8.291,6.709-14.999,14.999-14.999h61.997c8.291,0,14.999,6.709,14.999,14.999v179.99
	C91.995,505.278,85.286,511.986,76.996,511.986z"/>
<g>
</g>
<g>
</g>
<g>
</g>
<g>
</g>
<g>
</g>
<g>
</g>
<g>
</g>
<g>
</g>
<g>
</g>
<g>
</g>
<g>
</g>
<g>
</g>
<g>
</g>
<g>
</g>
<g>
</g>
</svg>
